<?xml version="1.0" ?>
<svg xmlns="http://www.w3.org/2000/svg" xmlns:ev="http://www.w3.org/2001/xml-events" xmlns:xlink="http://www.w3.org/1999/xlink" baseProfile="full" height="600px" version="1.1" viewBox="-22.025970449367875 -77.13700379646116 1048.5073538022787 1147.7494421088197" width="549px">
	<defs/>
	<path d="M 596.0,908.0 C 597.6666666666666,907.8333333333334 600.6666666666666,905.3333333333334 606.0,907.0 C 611.3333333333334,908.6666666666666 620.5,912.6666666666666 628.0,918.0 C 635.5,923.3333333333334 646.0,933.8333333333334 651.0,939.0 C 656.0,944.1666666666666 658.1666666666666,946.1666666666666 658.0,949.0 C 657.8333333333334,951.8333333333334 653.1666666666666,954.1666666666666 650.0,956.0 C 646.8333333333334,957.8333333333334 643.1666666666666,959.3333333333334 639.0,960.0 C 634.8333333333334,960.6666666666666 629.3333333333334,960.6666666666666 625.0,960.0 C 620.6666666666666,959.3333333333334 616.3333333333334,957.8333333333334 613.0,956.0 C 609.6666666666666,954.1666666666666 607.3333333333334,952.0 605.0,949.0 C 602.6666666666666,946.0 600.6666666666666,942.1666666666666 599.0,938.0 C 597.3333333333334,933.8333333333334 595.5,929.0 595.0,924.0 C 594.5,919.0 595.8333333333334,910.6666666666666 596.0,908.0 C 596.1666666666666,905.3333333333334 594.3333333333334,908.1666666666666 596.0,908.0" fill="none" stroke="black" stroke-width="1"/>
	<path d="M 292.0,890.0 C 293.8333333333333,889.6666666666666 297.3333333333333,887.0 303.0,888.0 C 308.6666666666667,889.0 317.1666666666667,891.1666666666666 326.0,896.0 C 334.8333333333333,900.8333333333334 348.3333333333333,910.5 356.0,917.0 C 363.6666666666667,923.5 373.6666666666667,929.6666666666666 372.0,935.0 C 370.3333333333333,940.3333333333334 356.1666666666667,947.1666666666666 346.0,949.0 C 335.8333333333333,950.8333333333334 318.5,947.6666666666666 311.0,946.0 C 303.5,944.3333333333334 304.1666666666667,942.6666666666666 301.0,939.0 C 297.8333333333333,935.3333333333334 293.5,932.1666666666666 292.0,924.0 C 290.5,915.8333333333334 292.0,895.6666666666666 292.0,890.0 C 292.0,884.3333333333334 290.1666666666667,890.3333333333334 292.0,890.0" fill="none" stroke="black" stroke-width="1"/>
	<path d="M 549.0,883.0 C 555.0,886.6666666666666 579.1666666666666,896.6666666666666 585.0,905.0 C 590.8333333333334,913.3333333333334 586.1666666666666,928.3333333333334 584.0,933.0 C 581.8333333333334,937.6666666666666 576.1666666666666,933.8333333333334 572.0,933.0 C 567.8333333333334,932.1666666666666 562.6666666666666,930.3333333333334 559.0,928.0 C 555.3333333333334,925.6666666666666 552.1666666666666,922.5 550.0,919.0 C 547.8333333333334,915.5 546.5,912.6666666666666 546.0,907.0 C 545.5,901.3333333333334 546.5,889.0 547.0,885.0 C 547.5,881.0 548.6666666666666,883.3333333333334 549.0,883.0 C 549.3333333333334,882.6666666666666 543.0,879.3333333333334 549.0,883.0" fill="none" stroke="black" stroke-width="1"/>
	<path d="M 252.0,873.0 C 254.5,873.8333333333334 262.1666666666667,875.5 267.0,878.0 C 271.8333333333333,880.5 279.0,885.6666666666666 281.0,888.0 C 283.0,890.3333333333334 279.3333333333333,888.0 279.0,892.0 C 278.6666666666667,896.0 278.5,906.8333333333334 279.0,912.0 C 279.5,917.1666666666666 281.8333333333333,920.8333333333334 282.0,923.0 C 282.1666666666667,925.1666666666666 283.0,925.0 280.0,925.0 C 277.0,925.0 268.3333333333333,924.8333333333334 264.0,923.0 C 259.6666666666667,921.1666666666666 256.6666666666667,918.1666666666666 254.0,914.0 C 251.33333333333334,909.8333333333334 249.0,902.3333333333334 248.0,898.0 C 247.0,893.6666666666666 247.33333333333334,892.1666666666666 248.0,888.0 C 248.66666666666666,883.8333333333334 251.33333333333334,875.5 252.0,873.0 C 252.66666666666666,870.5 249.5,872.1666666666666 252.0,873.0" fill="none" stroke="black" stroke-width="1"/>
	<path d="M 584.0,773.0 C 585.1666666666666,776.0 589.1666666666666,782.1666666666666 591.0,791.0 C 592.8333333333334,799.8333333333334 595.8333333333334,808.5 595.0,826.0 C 594.1666666666666,843.5 593.6666666666666,888.1666666666666 586.0,896.0 C 578.3333333333334,903.8333333333334 553.6666666666666,883.3333333333334 549.0,873.0 C 544.3333333333334,862.6666666666666 555.8333333333334,849.3333333333334 558.0,834.0 C 560.1666666666666,818.6666666666666 557.6666666666666,791.1666666666666 562.0,781.0 C 566.3333333333334,770.8333333333334 580.3333333333334,774.3333333333334 584.0,773.0 C 587.6666666666666,771.6666666666666 582.8333333333334,770.0 584.0,773.0" fill="none" stroke="black" stroke-width="1"/>
	<path d="M 275.0,729.0 C 278.3333333333333,732.1666666666666 292.3333333333333,730.8333333333334 295.0,748.0 C 297.6666666666667,765.1666666666666 293.1666666666667,810.3333333333334 291.0,832.0 C 288.8333333333333,853.6666666666666 288.1666666666667,872.6666666666666 282.0,878.0 C 275.8333333333333,883.3333333333334 255.16666666666666,888.8333333333334 254.0,864.0 C 252.83333333333334,839.1666666666666 271.5,751.5 275.0,729.0 C 278.5,706.5 271.6666666666667,725.8333333333334 275.0,729.0" fill="none" stroke="black" stroke-width="1"/>
	<path d="M 732.0,614.0 C 739.0,623.0 772.1666666666666,643.6666666666666 774.0,668.0 C 775.8333333333334,692.3333333333334 748.0,741.5 743.0,760.0 C 738.0,778.5 741.8333333333334,773.6666666666666 744.0,779.0 C 746.1666666666666,784.3333333333334 756.6666666666666,786.3333333333334 756.0,792.0 C 755.3333333333334,797.6666666666666 745.8333333333334,810.1666666666666 740.0,813.0 C 734.1666666666666,815.8333333333334 723.1666666666666,817.3333333333334 721.0,809.0 C 718.8333333333334,800.6666666666666 727.8333333333334,776.8333333333334 727.0,763.0 C 726.1666666666666,749.1666666666666 716.3333333333334,733.8333333333334 716.0,726.0 C 715.6666666666666,718.1666666666666 721.6666666666666,725.8333333333334 725.0,716.0 C 728.3333333333334,706.1666666666666 734.8333333333334,684.0 736.0,667.0 C 737.1666666666666,650.0 732.6666666666666,622.8333333333334 732.0,614.0 C 731.3333333333334,605.1666666666666 725.0,605.0 732.0,614.0" fill="none" stroke="black" stroke-width="1"/>
	<path d="M 706.0,549.0 C 706.3333333333334,549.0 707.5,549.1666666666666 708.0,549.0 C 708.5,548.8333333333334 708.6666666666666,548.1666666666666 709.0,548.0 C 709.3333333333334,547.8333333333334 709.5,547.6666666666666 710.0,548.0 C 710.5,548.3333333333334 711.6666666666666,549.1666666666666 712.0,550.0 C 712.3333333333334,550.8333333333334 711.8333333333334,552.3333333333334 712.0,553.0 C 712.1666666666666,553.6666666666666 712.8333333333334,553.3333333333334 713.0,554.0 C 713.1666666666666,554.6666666666666 712.8333333333334,556.3333333333334 713.0,557.0 C 713.1666666666666,557.6666666666666 713.8333333333334,557.3333333333334 714.0,558.0 C 714.1666666666666,558.6666666666666 714.1666666666666,560.3333333333334 714.0,561.0 C 713.8333333333334,561.6666666666666 713.5,562.1666666666666 713.0,562.0 C 712.5,561.8333333333334 711.6666666666666,561.1666666666666 711.0,560.0 C 710.3333333333334,558.8333333333334 710.0,556.5 709.0,555.0 C 708.0,553.5 705.6666666666666,551.8333333333334 705.0,551.0 C 704.3333333333334,550.1666666666666 704.8333333333334,550.3333333333334 705.0,550.0 C 705.1666666666666,549.6666666666666 705.8333333333334,549.1666666666666 706.0,549.0 C 706.1666666666666,548.8333333333334 705.6666666666666,549.0 706.0,549.0" fill="none" stroke="black" stroke-width="1"/>
	<path d="M 465.0,484.0 C 464.0,491.6666666666667 464.5,520.5 459.0,530.0 C 453.5,539.5 437.8333333333333,537.5 432.0,541.0 C 426.1666666666667,544.5 425.5,551.8333333333334 424.0,551.0 C 422.5,550.1666666666666 422.1666666666667,541.3333333333334 423.0,536.0 C 423.8333333333333,530.6666666666666 423.6666666666667,526.8333333333334 429.0,519.0 C 434.3333333333333,511.1666666666667 449.0,494.8333333333333 455.0,489.0 C 461.0,483.1666666666667 463.3333333333333,484.8333333333333 465.0,484.0 C 466.6666666666667,483.1666666666667 466.0,476.3333333333333 465.0,484.0" fill="none" stroke="black" stroke-width="1"/>
	<path d="M 694.0,459.0 C 701.6666666666666,461.0 730.3333333333334,461.0 740.0,471.0 C 749.6666666666666,481.0 738.6666666666666,508.0 752.0,519.0 C 765.3333333333334,530.0 801.3333333333334,525.0 820.0,537.0 C 838.6666666666666,549.0 857.6666666666666,572.6666666666666 864.0,591.0 C 870.3333333333334,609.3333333333334 867.6666666666666,631.0 858.0,647.0 C 848.3333333333334,663.0 810.5,672.6666666666666 806.0,687.0 C 801.5,701.3333333333334 834.8333333333334,711.0 831.0,733.0 C 827.1666666666666,755.0 784.0,793.5 783.0,819.0 C 782.0,844.5 826.8333333333334,876.6666666666666 825.0,886.0 C 823.1666666666666,895.3333333333334 785.0,881.8333333333334 772.0,875.0 C 759.0,868.1666666666666 747.0,859.1666666666666 747.0,845.0 C 747.0,830.8333333333334 771.0,802.0 772.0,790.0 C 773.0,778.0 755.1666666666666,783.1666666666666 753.0,773.0 C 750.8333333333334,762.8333333333334 752.3333333333334,746.6666666666666 759.0,729.0 C 765.6666666666666,711.3333333333334 796.0,686.3333333333334 793.0,667.0 C 790.0,647.6666666666666 752.6666666666666,634.3333333333334 741.0,613.0 C 729.3333333333334,591.6666666666666 738.1666666666666,554.8333333333334 723.0,539.0 C 707.8333333333334,523.1666666666666 654.8333333333334,531.3333333333334 650.0,518.0 C 645.1666666666666,504.6666666666667 686.6666666666666,468.8333333333333 694.0,459.0 C 701.3333333333334,449.1666666666667 686.3333333333334,457.0 694.0,459.0" fill="none" stroke="black" stroke-width="1"/>
	<path d="M 494.0,428.0 C 494.1666666666667,428.1666666666667 496.8333333333333,426.0 495.0,429.0 C 493.1666666666667,432.0 486.0,440.8333333333333 483.0,446.0 C 480.0,451.1666666666667 479.0,456.1666666666667 477.0,460.0 C 475.0,463.8333333333333 472.5,468.8333333333333 471.0,469.0 C 469.5,469.1666666666667 468.3333333333333,463.5 468.0,461.0 C 467.6666666666667,458.5 468.0,457.1666666666667 469.0,454.0 C 470.0,450.8333333333333 470.8333333333333,446.1666666666667 474.0,442.0 C 477.1666666666667,437.8333333333333 484.6666666666667,431.3333333333333 488.0,429.0 C 491.3333333333333,426.6666666666667 493.0,428.1666666666667 494.0,428.0 C 495.0,427.8333333333333 493.8333333333333,427.8333333333333 494.0,428.0" fill="none" stroke="black" stroke-width="1"/>
	<path d="M 110.0,430.0 C 109.83333333333333,429.8333333333333 110.0,429.1666666666667 109.0,429.0 C 108.0,428.8333333333333 105.0,428.8333333333333 104.0,429.0 C 103.0,429.1666666666667 103.5,429.8333333333333 103.0,430.0 C 102.5,430.1666666666667 101.5,429.8333333333333 101.0,430.0 C 100.5,430.1666666666667 100.33333333333333,430.8333333333333 100.0,431.0 C 99.66666666666667,431.1666666666667 99.5,430.6666666666667 99.0,431.0 C 98.5,431.3333333333333 97.33333333333333,432.1666666666667 97.0,433.0 C 96.66666666666667,433.8333333333333 96.83333333333333,435.3333333333333 97.0,436.0 C 97.16666666666667,436.6666666666667 97.5,436.8333333333333 98.0,437.0 C 98.5,437.1666666666667 99.5,436.8333333333333 100.0,437.0 C 100.5,437.1666666666667 100.66666666666667,438.0 101.0,438.0 C 101.33333333333333,438.0 101.66666666666667,437.0 102.0,437.0 C 102.33333333333333,437.0 102.66666666666667,437.8333333333333 103.0,438.0 C 103.33333333333333,438.1666666666667 103.66666666666667,438.1666666666667 104.0,438.0 C 104.33333333333333,437.8333333333333 104.66666666666667,437.1666666666667 105.0,437.0 C 105.33333333333333,436.8333333333333 105.83333333333333,437.1666666666667 106.0,437.0 C 106.16666666666667,436.8333333333333 105.5,436.6666666666667 106.0,436.0 C 106.5,435.3333333333333 108.33333333333333,433.5 109.0,433.0 C 109.66666666666667,432.5 109.83333333333333,433.5 110.0,433.0 C 110.16666666666667,432.5 110.0,430.5 110.0,430.0 C 110.0,429.5 110.16666666666667,430.1666666666667 110.0,430.0" fill="none" stroke="black" stroke-width="1"/>
	<path d="M 717.0,406.0 C 725.3333333333334,407.5 754.6666666666666,401.8333333333333 767.0,415.0 C 779.3333333333334,428.1666666666667 773.5,468.8333333333333 791.0,485.0 C 808.5,501.1666666666667 849.1666666666666,494.8333333333333 872.0,512.0 C 894.8333333333334,529.1666666666666 919.6666666666666,563.1666666666666 928.0,588.0 C 936.3333333333334,612.8333333333334 934.3333333333334,640.3333333333334 922.0,661.0 C 909.6666666666666,681.6666666666666 862.1666666666666,696.1666666666666 854.0,712.0 C 845.8333333333334,727.8333333333334 878.8333333333334,738.5 873.0,756.0 C 867.1666666666666,773.5 829.0,799.6666666666666 819.0,817.0 C 809.0,834.3333333333334 817.1666666666666,861.8333333333334 813.0,860.0 C 808.8333333333334,858.1666666666666 789.6666666666666,826.1666666666666 794.0,806.0 C 798.3333333333334,785.8333333333334 833.6666666666666,758.8333333333334 839.0,739.0 C 844.3333333333334,719.1666666666666 821.0,702.8333333333334 826.0,687.0 C 831.0,671.1666666666666 860.6666666666666,658.1666666666666 869.0,644.0 C 877.3333333333334,629.8333333333334 882.5,620.3333333333334 876.0,602.0 C 869.5,583.6666666666666 849.3333333333334,549.5 830.0,534.0 C 810.6666666666666,518.5 775.3333333333334,521.5 760.0,509.0 C 744.6666666666666,496.5 756.0,466.3333333333333 738.0,459.0 C 720.0,451.6666666666667 655.5,473.8333333333333 652.0,465.0 C 648.5,456.1666666666667 706.1666666666666,415.8333333333333 717.0,406.0 C 727.8333333333334,396.1666666666667 708.6666666666666,404.5 717.0,406.0" fill="none" stroke="black" stroke-width="1"/>
	<path d="M 263.0,333.0 C 264.0,333.5 267.1666666666667,334.5 269.0,336.0 C 270.8333333333333,337.5 272.6666666666667,339.3333333333333 274.0,342.0 C 275.3333333333333,344.6666666666667 277.3333333333333,348.8333333333333 277.0,352.0 C 276.6666666666667,355.1666666666667 274.1666666666667,358.5 272.0,361.0 C 269.8333333333333,363.5 266.8333333333333,365.6666666666667 264.0,367.0 C 261.1666666666667,368.3333333333333 258.1666666666667,369.6666666666667 255.0,369.0 C 251.83333333333334,368.3333333333333 247.16666666666666,365.0 245.0,363.0 C 242.83333333333334,361.0 242.5,359.1666666666667 242.0,357.0 C 241.5,354.8333333333333 241.5,351.6666666666667 242.0,350.0 C 242.5,348.3333333333333 244.66666666666666,347.8333333333333 245.0,347.0 C 245.33333333333334,346.1666666666667 242.66666666666666,347.1666666666667 244.0,345.0 C 245.33333333333334,342.8333333333333 249.83333333333334,336.0 253.0,334.0 C 256.1666666666667,332.0 261.3333333333333,333.1666666666667 263.0,333.0 C 264.6666666666667,332.8333333333333 262.0,332.5 263.0,333.0" fill="none" stroke="black" stroke-width="1"/>
	<path d="M 219.0,336.0 C 219.5,335.6666666666667 220.16666666666666,328.6666666666667 222.0,334.0 C 223.83333333333334,339.3333333333333 226.5,360.3333333333333 230.0,368.0 C 233.5,375.6666666666667 235.5,376.8333333333333 243.0,380.0 C 250.5,383.1666666666667 262.8333333333333,387.1666666666667 275.0,387.0 C 287.1666666666667,386.8333333333333 313.8333333333333,377.6666666666667 316.0,379.0 C 318.1666666666667,380.3333333333333 295.8333333333333,391.8333333333333 288.0,395.0 C 280.1666666666667,398.1666666666667 276.0,398.1666666666667 269.0,398.0 C 262.0,397.8333333333333 253.33333333333334,397.3333333333333 246.0,394.0 C 238.66666666666666,390.6666666666667 229.5,383.1666666666667 225.0,378.0 C 220.5,372.8333333333333 220.0,370.0 219.0,363.0 C 218.0,356.0 219.0,340.5 219.0,336.0 C 219.0,331.5 218.5,336.3333333333333 219.0,336.0" fill="none" stroke="black" stroke-width="1"/>
	<path d="M 308.0,294.0 C 311.1666666666667,296.8333333333333 323.5,306.6666666666667 327.0,311.0 C 330.5,315.3333333333333 329.5,317.0 329.0,320.0 C 328.5,323.0 326.3333333333333,326.1666666666667 324.0,329.0 C 321.6666666666667,331.8333333333333 320.1666666666667,335.1666666666667 315.0,337.0 C 309.8333333333333,338.8333333333333 299.1666666666667,341.1666666666667 293.0,340.0 C 286.8333333333333,338.8333333333333 280.8333333333333,332.8333333333333 278.0,330.0 C 275.1666666666667,327.1666666666667 276.0,326.1666666666667 276.0,323.0 C 276.0,319.8333333333333 275.8333333333333,315.5 278.0,311.0 C 280.1666666666667,306.5 285.1666666666667,299.0 289.0,296.0 C 292.8333333333333,293.0 297.8333333333333,293.3333333333333 301.0,293.0 C 304.1666666666667,292.6666666666667 306.8333333333333,293.8333333333333 308.0,294.0 C 309.1666666666667,294.1666666666667 304.8333333333333,291.1666666666667 308.0,294.0" fill="none" stroke="black" stroke-width="1"/>
	<path d="M 268.0,277.0 C 260.3333333333333,281.6666666666667 232.16666666666666,291.3333333333333 222.0,305.0 C 211.83333333333334,318.6666666666667 207.0,344.6666666666667 207.0,359.0 C 207.0,373.3333333333333 214.66666666666666,383.3333333333333 222.0,391.0 C 229.33333333333334,398.6666666666667 240.83333333333334,402.6666666666667 251.0,405.0 C 261.1666666666667,407.3333333333333 276.3333333333333,401.0 283.0,405.0 C 289.6666666666667,409.0 288.5,429.5 291.0,429.0 C 293.5,428.5 292.3333333333333,409.5 298.0,402.0 C 303.6666666666667,394.5 316.3333333333333,385.1666666666667 325.0,384.0 C 333.6666666666667,382.8333333333333 348.6666666666667,396.3333333333333 350.0,395.0 C 351.3333333333333,393.6666666666667 333.8333333333333,382.8333333333333 333.0,376.0 C 332.1666666666667,369.1666666666667 338.3333333333333,358.3333333333333 345.0,354.0 C 351.6666666666667,349.6666666666667 372.6666666666667,351.8333333333333 373.0,350.0 C 373.3333333333333,348.1666666666667 352.5,349.6666666666667 347.0,343.0 C 341.5,336.3333333333333 345.3333333333333,320.3333333333333 340.0,310.0 C 334.6666666666667,299.6666666666667 327.0,286.5 315.0,281.0 C 303.0,275.5 275.8333333333333,277.6666666666667 268.0,277.0 C 260.1666666666667,276.3333333333333 275.6666666666667,272.3333333333333 268.0,277.0" fill="none" stroke="black" stroke-width="1"/>
	<path d="M 76.0,241.0 C 76.5,240.66666666666666 76.33333333333333,238.0 79.0,239.0 C 81.66666666666667,240.0 87.16666666666667,245.0 92.0,247.0 C 96.83333333333333,249.0 102.83333333333333,250.83333333333334 108.0,251.0 C 113.16666666666667,251.16666666666666 121.5,244.5 123.0,248.0 C 124.5,251.5 121.0,266.6666666666667 117.0,272.0 C 113.0,277.3333333333333 103.0,278.6666666666667 99.0,280.0 C 95.0,281.3333333333333 96.33333333333333,281.8333333333333 93.0,280.0 C 89.66666666666667,278.1666666666667 81.83333333333333,272.3333333333333 79.0,269.0 C 76.16666666666667,265.6666666666667 76.5,264.6666666666667 76.0,260.0 C 75.5,255.33333333333334 76.0,244.16666666666666 76.0,241.0 C 76.0,237.83333333333334 75.5,241.33333333333334 76.0,241.0" fill="none" stroke="black" stroke-width="1"/>
	<path d="M 435.0,125.0 C 433.6666666666667,124.33333333333333 429.1666666666667,121.0 427.0,121.0 C 424.8333333333333,121.0 422.5,121.5 422.0,125.0 C 421.5,128.5 424.6666666666667,137.66666666666666 424.0,142.0 C 423.3333333333333,146.33333333333334 425.0,151.83333333333334 418.0,151.0 C 411.0,150.16666666666666 389.1666666666667,139.33333333333334 382.0,137.0 C 374.8333333333333,134.66666666666666 376.5,136.0 375.0,137.0 C 373.5,138.0 367.6666666666667,139.5 373.0,143.0 C 378.3333333333333,146.5 398.6666666666667,155.33333333333334 407.0,158.0 C 415.3333333333333,160.66666666666666 419.3333333333333,159.33333333333334 423.0,159.0 C 426.6666666666667,158.66666666666666 427.1666666666667,157.83333333333334 429.0,156.0 C 430.8333333333333,154.16666666666666 433.0,153.16666666666666 434.0,148.0 C 435.0,142.83333333333334 434.8333333333333,128.83333333333334 435.0,125.0 C 435.1666666666667,121.16666666666667 436.3333333333333,125.66666666666667 435.0,125.0" fill="none" stroke="black" stroke-width="1"/>
	<path d="M 402.0,103.0 C 400.6666666666667,103.16666666666667 396.8333333333333,102.33333333333333 394.0,104.0 C 391.1666666666667,105.66666666666667 388.0,109.33333333333333 385.0,113.0 C 382.0,116.66666666666667 377.0,123.16666666666667 376.0,126.0 C 375.0,128.83333333333334 378.1666666666667,129.16666666666666 379.0,130.0 C 379.8333333333333,130.83333333333334 379.6666666666667,131.0 381.0,131.0 C 382.3333333333333,131.0 385.6666666666667,131.5 387.0,130.0 C 388.3333333333333,128.5 386.1666666666667,126.0 389.0,122.0 C 391.8333333333333,118.0 401.8333333333333,109.16666666666667 404.0,106.0 C 406.1666666666667,102.83333333333333 402.3333333333333,103.5 402.0,103.0 C 401.6666666666667,102.5 403.3333333333333,102.83333333333333 402.0,103.0" fill="none" stroke="black" stroke-width="1"/>
	<path d="M 317.0,123.0 C 307.1666666666667,130.83333333333334 286.8333333333333,155.5 258.0,170.0 C 229.16666666666666,184.5 160.33333333333334,213.16666666666666 144.0,210.0 C 127.66666666666667,206.83333333333334 149.83333333333334,167.66666666666666 160.0,151.0 C 170.16666666666666,134.33333333333334 194.16666666666666,118.16666666666667 205.0,110.0 C 215.83333333333334,101.83333333333333 217.33333333333334,103.16666666666667 225.0,102.0 C 232.66666666666666,100.83333333333333 235.66666666666666,99.5 251.0,103.0 C 266.3333333333333,106.5 306.0,119.66666666666667 317.0,123.0 C 328.0,126.33333333333333 326.8333333333333,115.16666666666667 317.0,123.0" fill="none" stroke="black" stroke-width="1"/>
	<path d="M 517.0,102.0 C 525.5,111.0 566.0,136.33333333333334 568.0,156.0 C 570.0,175.66666666666666 529.1666666666666,205.0 529.0,220.0 C 528.8333333333334,235.0 559.0,233.16666666666666 567.0,246.0 C 575.0,258.8333333333333 602.0,250.83333333333334 577.0,297.0 C 552.0,343.1666666666667 443.3333333333333,476.8333333333333 417.0,523.0 C 390.6666666666667,569.1666666666666 422.3333333333333,574.6666666666666 419.0,574.0 C 415.6666666666667,573.3333333333334 392.5,536.8333333333334 397.0,519.0 C 401.5,501.1666666666667 439.8333333333333,483.8333333333333 446.0,467.0 C 452.1666666666667,450.1666666666667 425.3333333333333,432.0 434.0,418.0 C 442.6666666666667,404.0 491.8333333333333,396.5 498.0,383.0 C 504.1666666666667,369.5 471.6666666666667,356.1666666666667 471.0,337.0 C 470.3333333333333,317.8333333333333 495.1666666666667,287.1666666666667 494.0,268.0 C 492.8333333333333,248.83333333333334 468.1666666666667,248.16666666666666 464.0,222.0 C 459.8333333333333,195.83333333333334 460.1666666666667,131.0 469.0,111.0 C 477.8333333333333,91.0 509.0,103.5 517.0,102.0 C 525.0,100.5 508.5,93.0 517.0,102.0" fill="none" stroke="black" stroke-width="1"/>
	<path d="M 357.0,95.0 C 353.6666666666667,98.0 342.0,109.0 337.0,113.0 C 332.0,117.0 328.8333333333333,118.16666666666667 327.0,119.0 C 325.1666666666667,119.83333333333333 326.1666666666667,119.33333333333333 326.0,118.0 C 325.8333333333333,116.66666666666667 325.5,113.33333333333333 326.0,111.0 C 326.5,108.66666666666667 326.1666666666667,106.83333333333333 329.0,104.0 C 331.8333333333333,101.16666666666667 339.6666666666667,95.83333333333333 343.0,94.0 C 346.3333333333333,92.16666666666667 346.6666666666667,92.83333333333333 349.0,93.0 C 351.3333333333333,93.16666666666667 355.6666666666667,94.66666666666667 357.0,95.0 C 358.3333333333333,95.33333333333333 360.3333333333333,92.0 357.0,95.0" fill="none" stroke="black" stroke-width="1"/>
	<path d="M 409.0,91.0 C 408.5,91.5 406.3333333333333,92.83333333333333 406.0,94.0 C 405.6666666666667,95.16666666666667 405.8333333333333,96.5 407.0,98.0 C 408.1666666666667,99.5 411.6666666666667,101.5 413.0,103.0 C 414.3333333333333,104.5 413.5,105.0 415.0,107.0 C 416.5,109.0 420.0,113.66666666666667 422.0,115.0 C 424.0,116.33333333333333 426.0,115.66666666666667 427.0,115.0 C 428.0,114.33333333333333 430.0,114.83333333333333 428.0,111.0 C 426.0,107.16666666666667 418.1666666666667,95.33333333333333 415.0,92.0 C 411.8333333333333,88.66666666666667 410.0,91.16666666666667 409.0,91.0 C 408.0,90.83333333333333 409.5,90.5 409.0,91.0" fill="none" stroke="black" stroke-width="1"/>
	<path d="M 423.0,62.0 C 432.3333333333333,114.5 485.0,296.6666666666667 479.0,377.0 C 473.0,457.3333333333333 386.3333333333333,512.8333333333334 387.0,544.0 C 387.6666666666667,575.1666666666666 442.5,601.5 483.0,564.0 C 523.5,526.5 602.6666666666666,328.6666666666667 630.0,319.0 C 657.3333333333334,309.3333333333333 667.1666666666666,473.5 647.0,506.0 C 626.8333333333334,538.5 526.8333333333334,501.6666666666667 509.0,514.0 C 491.1666666666667,526.3333333333334 515.6666666666666,577.5 540.0,580.0 C 564.3333333333334,582.5 625.3333333333334,526.8333333333334 655.0,529.0 C 684.6666666666666,531.1666666666666 716.5,524.1666666666666 718.0,593.0 C 719.5,661.8333333333334 692.0,931.1666666666666 664.0,942.0 C 636.0,952.8333333333334 564.5,687.3333333333334 550.0,658.0 C 535.5,628.6666666666666 599.0,748.1666666666666 577.0,766.0 C 555.0,783.8333333333334 451.0,738.1666666666666 418.0,765.0 C 385.0,791.8333333333334 399.3333333333333,907.6666666666666 379.0,927.0 C 358.6666666666667,946.3333333333334 305.5,950.5 296.0,881.0 C 286.5,811.5 357.3333333333333,582.3333333333334 322.0,510.0 C 286.6666666666667,437.6666666666667 112.5,495.5 84.0,447.0 C 55.5,398.5 94.5,283.1666666666667 151.0,219.0 C 207.5,154.83333333333331 377.6666666666667,88.16666666666667 423.0,62.0 C 468.3333333333333,35.83333333333333 413.6666666666667,9.5 423.0,62.0" fill="none" stroke="black" stroke-width="1"/>
	<path d="M 501.0,57.0 C 511.5,55.5 545.0,43.0 564.0,48.0 C 583.0,53.0 604.1666666666666,69.83333333333333 615.0,87.0 C 625.8333333333334,104.16666666666667 630.8333333333334,131.83333333333334 629.0,151.0 C 627.1666666666666,170.16666666666666 601.1666666666666,184.16666666666666 604.0,202.0 C 606.8333333333334,219.83333333333334 641.0,240.0 646.0,258.0 C 651.0,276.0 640.3333333333334,302.3333333333333 634.0,310.0 C 627.6666666666666,317.6666666666667 617.3333333333334,302.5 608.0,304.0 C 598.6666666666666,305.5 581.5,324.3333333333333 578.0,319.0 C 574.5,313.6666666666667 592.3333333333334,289.0 587.0,272.0 C 581.6666666666666,255.0 547.8333333333334,232.33333333333334 546.0,217.0 C 544.1666666666666,201.66666666666666 571.6666666666666,192.66666666666666 576.0,180.0 C 580.3333333333334,167.33333333333334 580.0,154.66666666666666 572.0,141.0 C 564.0,127.33333333333333 545.6666666666666,105.0 528.0,98.0 C 510.3333333333333,91.0 470.5,105.83333333333333 466.0,99.0 C 461.5,92.16666666666667 495.1666666666667,64.0 501.0,57.0 C 506.8333333333333,50.0 490.5,58.5 501.0,57.0" fill="none" stroke="black" stroke-width="1"/>
	<path d="M 416.0,48.0 C 399.0,58.166666666666664 344.3333333333333,101.5 314.0,109.0 C 283.6666666666667,116.5 254.33333333333334,93.16666666666667 234.0,93.0 C 213.66666666666666,92.83333333333333 206.16666666666666,98.16666666666667 192.0,108.0 C 177.83333333333334,117.83333333333333 159.0,132.33333333333334 149.0,152.0 C 139.0,171.66666666666666 137.33333333333334,228.33333333333334 132.0,226.0 C 126.66666666666667,223.66666666666666 116.33333333333333,160.66666666666666 117.0,138.0 C 117.66666666666667,115.33333333333333 127.66666666666667,103.16666666666667 136.0,90.0 C 144.33333333333334,76.83333333333333 148.5,67.0 167.0,59.0 C 185.5,51.0 223.5,41.666666666666664 247.0,42.0 C 270.5,42.333333333333336 288.5,63.5 308.0,61.0 C 327.5,58.5 346.0,29.166666666666668 364.0,27.0 C 382.0,24.833333333333332 407.3333333333333,44.5 416.0,48.0 C 424.6666666666667,51.5 433.0,37.833333333333336 416.0,48.0" fill="none" stroke="black" stroke-width="1"/>
	<path d="M 150.0,60.0 C 145.66666666666666,88.83333333333333 137.66666666666666,205.16666666666666 124.0,233.0 C 110.33333333333333,260.8333333333333 69.33333333333333,202.83333333333334 68.0,227.0 C 66.66666666666667,251.16666666666666 115.33333333333333,342.0 116.0,378.0 C 116.66666666666667,414.0 44.5,416.5 72.0,443.0 C 99.5,469.5 251.66666666666666,456.6666666666667 281.0,537.0 C 310.3333333333333,617.3333333333334 233.0,856.5 248.0,925.0 C 263.0,993.5 341.3333333333333,970.6666666666666 371.0,948.0 C 400.6666666666667,925.3333333333334 396.3333333333333,816.6666666666666 426.0,789.0 C 455.6666666666667,761.3333333333334 530.3333333333334,759.8333333333334 549.0,782.0 C 567.6666666666666,804.1666666666666 525.3333333333334,890.6666666666666 538.0,922.0 C 550.6666666666666,953.3333333333334 594.5,987.0 625.0,970.0 C 655.5,953.0 683.8333333333334,834.5 721.0,820.0 C 758.1666666666666,805.5 812.0,922.0 848.0,883.0 C 884.0,844.0 950.1666666666666,665.3333333333334 937.0,586.0 C 923.8333333333334,506.6666666666667 819.3333333333334,443.1666666666667 769.0,407.0 C 718.6666666666666,370.8333333333333 660.6666666666666,424.6666666666667 635.0,369.0 C 609.3333333333334,313.3333333333333 658.3333333333334,131.33333333333334 615.0,73.0 C 571.6666666666666,14.666666666666664 452.5,21.166666666666668 375.0,19.0 C 297.5,16.833333333333332 187.5,53.166666666666664 150.0,60.0 C 112.5,66.83333333333333 154.33333333333334,31.166666666666668 150.0,60.0" fill="none" stroke="black" stroke-width="1"/>
</svg>
