<?xml version="1.0" encoding="UTF-8"?>
<svg width="980" height="980" xmlns="http://www.w3.org/2000/svg">
<path d="M711,903 L717,904 L724,899 L747,900 L754,905 L767,905 L771,910 L789,912 L801,918 L796,920 L762,913 L721,911 L713,908 Z" fill="none" stroke="black" stroke-width="1" />
<path d="M820,890 L821,891 L823,891 L828,894 L830,894 L832,896 L835,897 L835,895 L834,895 L833,894 L832,895 L829,893 L827,893 L826,892 L824,892 L822,890 Z" fill="none" stroke="black" stroke-width="1" />
<path d="M748,896 L803,878 L849,894 L870,912 L846,902 L848,907 L838,908 L801,890 L784,889 L819,902 L833,912 L832,919 Z" fill="none" stroke="black" stroke-width="1" />
<path d="M166,910 L237,877 L300,900 L334,898 L323,911 L268,917 L293,899 L231,922 L254,892 L193,917 L241,883 Z" fill="none" stroke="black" stroke-width="1" />
<path d="M421,807 L421,808 L422,809 L422,810 L423,810 L424,811 L425,811 L426,812 L428,812 L428,810 L427,810 L426,809 L425,810 L424,809 L424,808 L423,809 L422,809 L421,808 Z" fill="none" stroke="black" stroke-width="1" />
<path d="M635,754 L630,776 L619,795 L609,806 L618,799 L622,800 L629,793 L635,776 Z" fill="none" stroke="black" stroke-width="1" />
<path d="M386,746 L387,777 L398,797 L397,793 L402,793 L416,806 L418,803 L405,793 L397,781 Z" fill="none" stroke="black" stroke-width="1" />
<path d="M497,527 L498,530 L495,535 L483,546 L476,551 L474,551 L473,547 Z" fill="none" stroke="black" stroke-width="1" />
<path d="M352,498 L354,496 L374,506 L395,508 L396,522 L393,528 L375,540 L361,541 L350,537 L343,528 L350,515 Z" fill="none" stroke="black" stroke-width="1" />
<path d="M248,495 L252,498 L266,523 L283,538 L268,552 L262,551 L249,541 L227,519 Z" fill="none" stroke="black" stroke-width="1" />
<path d="M242,471 L245,476 L248,491 L233,503 L229,510 L224,514 L214,500 L210,490 L217,484 Z" fill="none" stroke="black" stroke-width="1" />
<path d="M239,451 L242,467 L221,477 L208,487 L200,471 L203,468 L214,465 Z" fill="none" stroke="black" stroke-width="1" />
<path d="M272,422 L272,432 L275,435 L281,438 L285,438 L291,435 L291,431 L287,424 L279,419 L276,419 Z" fill="none" stroke="black" stroke-width="1" />
<path d="M477,409 L527,413 L563,421 L519,409 Z" fill="none" stroke="black" stroke-width="1" />
<path d="M351,387 L345,388 L341,392 L339,396 L338,407 L339,410 L342,413 L349,412 L357,403 L356,392 Z" fill="none" stroke="black" stroke-width="1" />
<path d="M176,373 L199,395 L194,440 L170,444 L168,441 Z" fill="none" stroke="black" stroke-width="1" />
<path d="M592,369 L535,366 L476,377 L534,369 Z" fill="none" stroke="black" stroke-width="1" />
<path d="M916,333 L917,334 L916,337 L902,351 L901,351 L900,350 L900,344 L903,341 L905,341 L907,339 L911,337 L912,335 Z" fill="none" stroke="black" stroke-width="1" />
<path d="M120,324 L167,371 L157,439 L142,436 L128,423 L95,359 L95,344 Z" fill="none" stroke="black" stroke-width="1" />
<path d="M920,317 L914,326 L901,335 L899,334 L899,329 L903,325 L907,324 L910,322 L912,319 L915,320 L917,317 L919,316 Z" fill="none" stroke="black" stroke-width="1" />
<path d="M353,313 L427,369 L447,420 L447,457 L427,489 L401,501 L357,492 L331,459 L349,491 L328,533 L303,538 L274,520 L256,487 L246,380 L282,328 Z" fill="none" stroke="black" stroke-width="1" />
<path d="M928,299 L889,323 L893,352 L875,375 L861,379 L882,360 L889,341 L865,370 L830,382 L822,356 L837,333 L874,313 L862,329 Z" fill="none" stroke="black" stroke-width="1" />
<path d="M919,285 L826,338 L837,394 L679,565 L785,784 L772,882 L558,823 L270,878 L260,781 L361,679 L248,633 L270,559 L509,498 L353,647 L655,406 Z" fill="none" stroke="black" stroke-width="1" />
<path d="M234,281 L245,292 L249,344 L237,372 L235,416 L203,435 L209,404 L235,362 L229,319 Z" fill="none" stroke="black" stroke-width="1" />
<path d="M225,281 L219,329 L225,339 L220,348 L224,361 L218,365 L219,374 L212,379 L208,396 L129,319 L179,294 Z" fill="none" stroke="black" stroke-width="1" />
<path d="M458,261 L480,286 L473,326 L470,329 L449,331 L447,323 Z" fill="none" stroke="black" stroke-width="1" />
<path d="M362,309 L361,312 L319,310 L280,325 L279,280 L297,267 L322,261 Z" fill="none" stroke="black" stroke-width="1" />
<path d="M392,206 L452,259 L446,263 L442,314 L435,328 L394,305 L359,246 L360,230 Z" fill="none" stroke="black" stroke-width="1" />
<path d="M569,179 L662,287 L638,273 L658,331 L649,393 L569,475 L402,528 L450,453 L423,359 L497,353 L555,317 L575,272 Z" fill="none" stroke="black" stroke-width="1" />
<path d="M516,161 L525,170 L534,211 L538,279 L520,307 L484,321 L486,297 L502,277 Z" fill="none" stroke="black" stroke-width="1" />
<path d="M507,161 L490,286 L401,201 L446,179 Z" fill="none" stroke="black" stroke-width="1" />
<path d="M578,164 L583,164 L585,160 L587,165 L592,167 L597,178 L602,179 L628,207 L635,223 L580,172 Z" fill="none" stroke="black" stroke-width="1" />
<path d="M525,153 L435,173 L352,224 L354,260 L392,314 L424,332 L461,334 L504,322 L536,299 L548,246 Z" fill="none" stroke="black" stroke-width="1" />
<path d="M164,145 L188,149 L212,164 L196,192 L153,169 L129,180 L159,177 L192,199 L171,262 L139,242 L121,199 L128,163 Z" fill="none" stroke="black" stroke-width="1" />
<path d="M646,209 L569,134 L560,295 L471,351 L323,251 L260,339 L237,271 L131,306 L84,360 L140,444 L235,426 L196,462 L118,441 L52,348 L211,263 L47,342 L541,121 Z" fill="none" stroke="black" stroke-width="1" />
<path d="M587,39 L583,128 L507,120 L535,57 L580,43 L552,36 L505,123 L398,163 L408,136 L181,255 L228,142 L296,118 L218,115 L349,69 L294,54 L429,63 L477,103 L511,25 Z" fill="none" stroke="black" stroke-width="1" />
<path d="M927,280 L657,397 L556,9 L133,148 L158,266 L44,350 L193,473 L184,581 L259,558 L245,650 L353,681 L155,920 L552,833 L879,922 L788,867 L695,566 Z" fill="none" stroke="black" stroke-width="1" />
</svg>